<svg width="155" height="44" viewBox="0 0 155 44" fill="none" xmlns="http://www.w3.org/2000/svg">
<g clip-path="url(#clip0_6467_7704)">
<path d="M39.3751 19.0625V30.6224C39.3751 32.3212 38.4675 33.892 36.9956 34.7414L22.0672 43.3634C20.5953 44.2128 18.7801 44.2128 17.3082 43.3634L11.9326 40.2567C11.2461 39.6982 10.6003 39.0873 10.0127 38.4299C11.2519 38.7208 12.5434 38.8779 13.8699 38.8779C16.5112 38.8779 19.0128 38.2728 21.2352 37.1907C21.5203 37.0918 21.7996 36.9696 22.0672 36.8126L28.9671 32.8215L29.9503 32.2514C29.9503 32.2514 29.9736 32.2398 29.9794 32.234C30.4739 31.978 30.9626 31.6987 31.4338 31.3904C31.4862 31.3613 31.5385 31.3264 31.5909 31.2915C34.3893 29.4705 36.6989 26.899 38.0777 23.8156C38.1243 23.7109 38.1708 23.6062 38.2116 23.5073C38.2581 23.4025 38.2988 23.2978 38.3396 23.1931C38.4326 22.9604 38.5141 22.7335 38.5955 22.5008C38.6421 22.3611 38.6886 22.2273 38.7293 22.0819C39.0319 21.1045 39.2529 20.098 39.3809 19.0566L39.3751 19.0625Z" fill="url(#paint0_linear_6467_7704)"/>
<path d="M24.7199 27.8646L21.5667 26.0495L15.4871 42.3161L4.52637 35.9863L15.522 22.5705L12.5026 20.8367C11.8102 20.4411 11.9441 19.4114 12.712 19.2078L22.3346 16.6072C22.8117 16.4792 23.3004 16.7585 23.4284 17.2355L26.0231 26.8582C26.2326 27.6261 25.4123 28.2603 24.7199 27.8646Z" fill="#0060DB"/>
<path d="M12.0895 40.3432C12.0895 40.3432 7.83669 36.9805 8.30794 31.3779L4.52637 35.9914L12.0837 40.3432H12.0895Z" fill="#0041CB"/>
<path d="M22.0669 7.19971V7.21135C20.595 6.36195 18.7799 6.36195 17.3079 7.21135L8.05765 12.5521C6.69047 13.3433 5.81198 14.757 5.69562 16.3162C5.68399 16.4326 5.68399 16.5547 5.68399 16.6711V27.3584C5.68399 27.4282 5.68399 27.5038 5.68399 27.5678C5.68399 27.6027 5.68399 27.6376 5.68399 27.6725C5.81198 31.809 7.42351 35.5673 10.0066 38.4355C10.6 39.0929 11.24 39.7037 11.9265 40.2623C11.9381 40.2739 11.9498 40.2855 11.9614 40.2913L2.37948 34.747C0.907577 33.8976 0 32.3268 0 30.628V13.3898C0 11.6911 0.907577 10.1202 2.37948 9.27085L7.44096 6.35031C8.34272 5.97797 9.27939 5.68708 10.251 5.47764C11.4145 5.22166 12.6246 5.08203 13.8696 5.08203C16.7843 5.08203 19.5303 5.82089 21.9215 7.11826C21.968 7.14153 22.0145 7.17062 22.0669 7.19971Z" fill="url(#paint1_linear_6467_7704)"/>
<path d="M39.375 13.378V19.062C39.247 20.1034 39.0318 21.1157 38.7234 22.0873C38.6827 22.2327 38.6303 22.3665 38.5896 22.5061C38.5082 22.7389 38.4209 22.9716 38.3336 23.1985C38.2929 23.3032 38.2522 23.4079 38.2056 23.5126C38.1649 23.6173 38.1184 23.7221 38.0718 23.821C36.7337 26.8753 34.5171 29.3537 31.7421 31.1921C32.9638 30.302 33.6968 28.8708 33.6968 27.3407V16.6593C33.6968 15.3735 33.1791 14.1634 32.2889 13.2791C32.0039 12.994 31.6781 12.7439 31.3174 12.5344L22.6314 7.52532C22.6314 7.52532 22.5732 7.49041 22.5441 7.47296L22.0671 7.19952C22.0205 7.17043 21.974 7.14716 21.9216 7.11807C19.5305 5.82071 16.7845 5.08185 13.8698 5.08185C12.6248 5.08185 11.4147 5.22147 10.2511 5.47746C9.27954 5.6869 8.34287 5.97779 7.44112 6.35013C7.42948 6.35594 7.41203 6.36176 7.40039 6.36758L17.3081 0.637049C18.78 -0.21235 20.5952 -0.21235 22.0671 0.637049L36.9955 9.25902C38.2405 9.97461 39.0841 11.2138 39.311 12.6043C39.3517 12.8602 39.375 13.1162 39.375 13.378Z" fill="url(#paint2_linear_6467_7704)"/>
<path opacity="0.5" d="M7.4818 6.31543L7.43526 6.34452C7.43526 6.34452 7.41198 6.34452 7.39453 6.35034L7.4818 6.31543Z" fill="#0763FE"/>
<path d="M22.0667 7.19971V7.21135C20.7751 6.46085 19.4487 6.45503 18.5062 6.72265C17.2844 6.25141 15.3413 6.12924 13.9857 5.94307C12.7524 5.77435 11.5365 5.7569 10.3438 5.84998C9.36641 5.93143 8.41229 6.08851 7.48145 6.33286C7.59198 6.28632 7.70252 6.23977 7.81888 6.19905C8.01668 6.12342 8.22031 6.0536 8.41811 5.98379C8.47629 5.96052 8.53447 5.94307 8.59846 5.92561C8.76136 5.87325 8.93008 5.82089 9.09298 5.76853C9.47113 5.65799 9.85511 5.55909 10.2449 5.47764C11.4085 5.22166 12.6186 5.08203 13.8636 5.08203C16.7783 5.08203 19.5243 5.82089 21.9154 7.11826C21.9619 7.14153 22.0085 7.17062 22.0608 7.19971H22.0667Z" fill="#0763FE"/>
<path d="M7.44112 6.33878C7.44112 6.33878 7.46439 6.33297 7.48184 6.32715C7.4702 6.32715 7.45275 6.33878 7.44112 6.3446C7.42948 6.35042 7.41203 6.35624 7.40039 6.36206L7.44112 6.33878C7.44112 6.33878 7.44112 6.33878 7.44693 6.33878H7.44112Z" fill="#00C0FF"/>
<path d="M32.6553 30.5467C34.9708 28.7955 36.8732 26.5033 38.0716 23.8213C36.8848 26.5324 35.0057 28.7897 32.6553 30.5467Z" fill="#0148BE"/>
<path d="M39.3637 19.0625L39.3404 19.3068C39.3404 19.3534 39.3288 19.3941 39.3229 19.4407C39.3171 19.4872 39.3113 19.5279 39.3055 19.5745C39.2939 19.6617 39.2764 19.749 39.2648 19.8363C39.224 20.0923 39.1717 20.3482 39.1193 20.5984C39.0088 21.1045 38.8808 21.5991 38.7295 22.0878C38.6888 22.2332 38.6364 22.367 38.5957 22.5066C38.5143 22.7393 38.427 22.9721 38.3397 23.199C38.299 23.3037 38.2583 23.4084 38.2117 23.5131C38.171 23.6178 38.1245 23.7226 38.0779 23.8215C36.8911 26.5326 35.012 28.7899 32.6616 30.5468C32.6092 30.5876 32.5568 30.6225 32.5045 30.6632C32.3881 30.7505 32.2776 30.8319 32.1612 30.9134C32.0332 31.0064 31.8994 31.0937 31.7656 31.1868C32.679 30.5119 33.1735 29.7265 33.4935 28.7491C35.1109 27.4285 36.5769 25.5144 37.6183 23.6818C37.6707 23.5829 37.7289 23.484 37.7812 23.3851C37.8336 23.2862 37.8859 23.1873 37.9383 23.0826C38.0488 22.8615 38.1594 22.6404 38.2583 22.4136C38.3165 22.2797 38.3746 22.1518 38.4328 22.0121C38.8284 21.0696 39.1484 20.0864 39.3695 19.0625H39.3637Z" fill="#0296FE"/>
<path d="M82.4437 23.541V26.9037C82.4437 27.3982 82.176 27.852 81.7513 28.0964L77.4113 30.6038C76.9807 30.8482 76.4571 30.8482 76.0266 30.6038L74.4616 29.7021C74.258 29.5392 74.0718 29.3588 73.9031 29.1668C73.1526 28.3349 72.6872 27.2411 72.6465 26.0368C72.6465 26.0252 72.6465 26.0194 72.6465 26.0078V25.9496C72.6465 26.4441 72.9141 26.8979 73.3388 27.1422L76.0266 28.6956C76.3757 28.8992 76.7946 28.9399 77.1669 28.8061C77.2484 28.777 77.3298 28.7421 77.4113 28.6956L79.4184 27.532L79.7035 27.3691C79.7035 27.3691 79.7093 27.3691 79.7151 27.3691C79.8547 27.2935 80.0002 27.212 80.134 27.1248C80.1514 27.1131 80.1631 27.1073 80.1805 27.0957C80.9892 26.5663 81.6641 25.8216 82.0655 24.9256C82.0771 24.8966 82.0946 24.8675 82.1062 24.8384C82.1179 24.8093 82.1295 24.7744 82.1411 24.7453C82.1702 24.6813 82.1935 24.6115 82.2168 24.5417L82.2575 24.4253C82.3448 24.1402 82.4088 23.8435 82.4437 23.5468V23.541Z" fill="#0148BE"/>
<path d="M77.4112 20.0913C76.9807 19.8469 76.4571 19.8469 76.0266 20.0913L73.3388 21.6446C72.9431 21.8773 72.6872 22.2846 72.6523 22.7384C72.6523 22.7733 72.6523 22.8082 72.6523 22.8431V25.9498C72.6523 25.9498 72.6523 25.9905 72.6523 26.0138C72.6523 26.0254 72.6523 26.0312 72.6523 26.0429C72.6872 27.2471 73.1584 28.3351 73.9089 29.1728C74.0834 29.3648 74.2696 29.5394 74.4674 29.7023C74.4674 29.7023 74.4732 29.7081 74.479 29.7139L71.6923 28.1024C71.2618 27.858 71 27.3984 71 26.9039V21.889C71 21.3944 71.2618 20.9407 71.6923 20.6905L73.1642 19.8411C73.426 19.7306 73.6995 19.6491 73.9845 19.5851C74.322 19.5095 74.6768 19.4688 75.0376 19.4688C75.887 19.4688 76.684 19.684 77.3763 20.0622C77.3879 20.068 77.4054 20.0796 77.417 20.0854L77.4112 20.0913Z" fill="url(#paint3_linear_6467_7704)"/>
<path d="M82.4434 21.8892V23.5415C82.4085 23.844 82.3445 24.1407 82.2572 24.4199C82.2456 24.4607 82.2281 24.5014 82.2165 24.5421C82.1932 24.6119 82.17 24.6759 82.1409 24.7457C82.1292 24.7748 82.1176 24.8039 82.106 24.8388C82.0943 24.8679 82.0827 24.897 82.0652 24.9261C81.6755 25.8162 81.0297 26.5318 80.2268 27.067C80.5817 26.8111 80.797 26.3922 80.797 25.95V22.8433C80.797 22.471 80.6457 22.1161 80.3897 21.8601C80.3083 21.7787 80.2094 21.703 80.1105 21.6448L77.5855 20.1904C77.5855 20.1904 77.5681 20.1788 77.5623 20.1729L77.4226 20.0915C77.4226 20.0915 77.3936 20.074 77.3819 20.0682C76.6838 19.6901 75.8867 19.4748 75.0432 19.4748C74.6825 19.4748 74.3276 19.5155 73.9901 19.5912C73.7109 19.6552 73.4375 19.7366 73.1698 19.8472C73.1698 19.8472 73.164 19.8472 73.1582 19.8472L76.038 18.1833C76.4685 17.9389 76.9921 17.9389 77.4226 18.1833L81.7627 20.6907C82.1234 20.9002 82.3678 21.2609 82.4376 21.6623C82.4492 21.7379 82.455 21.8136 82.455 21.8892H82.4434Z" fill="url(#paint4_linear_6467_7704)"/>
<path d="M56.108 18.484C57.732 18.484 59.096 19.056 60.2 20.2C61.304 21.344 61.856 22.788 61.856 24.532C61.856 26.276 61.304 27.72 60.2 28.864C59.096 30.008 57.732 30.58 56.108 30.58C54.58 30.58 53.38 30.024 52.508 28.912V30.28H50V13H52.508V20.152C53.38 19.04 54.58 18.484 56.108 18.484ZM55.808 20.848C54.784 20.848 53.948 21.196 53.3 21.892C52.66 22.588 52.34 23.468 52.34 24.532C52.34 25.596 52.66 26.476 53.3 27.172C53.948 27.868 54.784 28.216 55.808 28.216C56.856 28.216 57.696 27.864 58.328 27.16C58.96 26.448 59.276 25.572 59.276 24.532C59.276 23.492 58.96 22.62 58.328 21.916C57.696 21.204 56.856 20.848 55.808 20.848Z" fill="#000224"/>
<path d="M67.4731 13V30.28H64.9531V13H67.4731Z" fill="#000224"/>
<path d="M91.2669 18.484C92.1389 18.484 92.9469 18.64 93.6909 18.952C94.4349 19.264 95.0589 19.72 95.5629 20.32L93.9549 22.036C93.1149 21.244 92.1949 20.848 91.1949 20.848C90.2189 20.848 89.4069 21.192 88.7589 21.88C88.1189 22.568 87.7989 23.452 87.7989 24.532C87.7989 25.612 88.1189 26.496 88.7589 27.184C89.4069 27.872 90.2189 28.216 91.1949 28.216C92.2189 28.216 93.1589 27.816 94.0149 27.016L95.5629 28.744C94.5069 29.968 93.0749 30.58 91.2669 30.58C89.4589 30.58 87.9989 30.008 86.8869 28.864C85.7749 27.72 85.2189 26.276 85.2189 24.532C85.2189 22.788 85.7749 21.344 86.8869 20.2C87.9989 19.056 89.4589 18.484 91.2669 18.484Z" fill="#000224"/>
<path d="M100.895 13V23.152H102.155L105.947 18.784H109.103L104.291 24.196L109.151 30.28H105.971L102.143 25.432H100.895V30.28H98.375V13H100.895Z" fill="#000224"/>
<path d="M113.926 13V30.28H111.406V13H113.926Z" fill="#000224"/>
<path d="M122.748 18.484C124.356 18.484 125.66 19.044 126.66 20.164C127.668 21.276 128.176 22.728 128.184 24.52C128.184 24.76 128.168 25.072 128.136 25.456H119.64C119.8 26.44 120.192 27.176 120.816 27.664C121.44 28.144 122.188 28.384 123.06 28.384C124.26 28.384 125.368 27.98 126.384 27.172L127.632 28.96C126.368 30.04 124.792 30.58 122.904 30.58C121.168 30.58 119.752 30.024 118.656 28.912C117.568 27.8 117.024 26.34 117.024 24.532C117.024 22.732 117.552 21.276 118.608 20.164C119.672 19.044 121.052 18.484 122.748 18.484ZM122.7 20.716C121.836 20.716 121.144 20.972 120.624 21.484C120.112 21.988 119.788 22.676 119.652 23.548H125.616C125.48 22.652 125.156 21.956 124.644 21.46C124.14 20.964 123.492 20.716 122.7 20.716Z" fill="#000224"/>
<path d="M137.305 18.484C138.673 18.484 139.793 18.912 140.665 19.768C141.537 20.616 141.973 21.712 141.973 23.056V30.28H139.453V23.884C139.453 22.924 139.217 22.184 138.745 21.664C138.281 21.136 137.625 20.872 136.777 20.872C135.929 20.872 135.221 21.144 134.653 21.688C134.085 22.224 133.801 22.964 133.801 23.908V30.28H131.281V18.784H133.777V20.188C134.553 19.052 135.729 18.484 137.305 18.484Z" fill="#000224"/>
<path d="M154.693 19.708L153.613 21.664C153.205 21.408 152.673 21.18 152.017 20.98C151.369 20.78 150.717 20.68 150.061 20.68C149.389 20.68 148.857 20.804 148.465 21.052C148.081 21.3 147.889 21.632 147.889 22.048C147.889 22.24 147.933 22.408 148.021 22.552C148.117 22.688 148.257 22.8 148.441 22.888C148.633 22.976 148.829 23.044 149.029 23.092C149.237 23.14 149.489 23.188 149.785 23.236L150.973 23.416C153.637 23.8 154.969 24.932 154.969 26.812C154.969 27.94 154.505 28.848 153.577 29.536C152.649 30.224 151.369 30.568 149.737 30.568C147.777 30.568 146.133 30.076 144.805 29.092L145.969 27.208C146.993 27.992 148.257 28.384 149.761 28.384C150.609 28.384 151.257 28.26 151.705 28.012C152.153 27.764 152.377 27.42 152.377 26.98C152.377 26.316 151.713 25.892 150.385 25.708L149.185 25.552C147.913 25.376 146.945 25.004 146.281 24.436C145.617 23.86 145.285 23.108 145.285 22.18C145.285 21.044 145.709 20.148 146.557 19.492C147.413 18.828 148.573 18.496 150.037 18.496C151.893 18.496 153.445 18.9 154.693 19.708Z" fill="#000224"/>
</g>
<defs>
<linearGradient id="paint0_linear_6467_7704" x1="15.5163" y1="42.3046" x2="38.5199" y2="25.8809" gradientUnits="userSpaceOnUse">
<stop stop-color="#0148BE"/>
<stop offset="1" stop-color="#0257BC"/>
</linearGradient>
<linearGradient id="paint1_linear_6467_7704" x1="12.6712" y1="6.32122" x2="3.58958" y2="33.6591" gradientUnits="userSpaceOnUse">
<stop stop-color="#226CFF"/>
<stop offset="1" stop-color="#1084FF"/>
</linearGradient>
<linearGradient id="paint2_linear_6467_7704" x1="15.5046" y1="1.43409" x2="38.2289" y2="23.9373" gradientUnits="userSpaceOnUse">
<stop stop-color="#03CAFF"/>
<stop offset="1" stop-color="#01B9FF"/>
</linearGradient>
<linearGradient id="paint3_linear_6467_7704" x1="74.6769" y1="19.8353" x2="72.0414" y2="27.7824" gradientUnits="userSpaceOnUse">
<stop stop-color="#226CFF"/>
<stop offset="1" stop-color="#1084FF"/>
</linearGradient>
<linearGradient id="paint4_linear_6467_7704" x1="75.5028" y1="18.416" x2="82.1118" y2="24.9552" gradientUnits="userSpaceOnUse">
<stop stop-color="#00DBFF"/>
<stop offset="1" stop-color="#01B9FF"/>
</linearGradient>
<clipPath id="clip0_6467_7704">
<rect width="155" height="44" fill="white"/>
</clipPath>
</defs>
</svg>
