<svg width="107" height="24" viewBox="0 0 107 24" fill="none" xmlns="http://www.w3.org/2000/svg">
<g id="Logo">
<path id="Union" fill-rule="evenodd" clip-rule="evenodd" d="M106.032 0L104.917 8.5949L102.529 6.19183L90.4661 17.8571L83.9895 9.77868L83.9894 9.77872V23.6721H79.8806V4.8943H81.3708L84.4073 4.87496L90.4661 12.6688L99.9668 3.61394L97.4302 1.06164L106.032 0ZM96.9428 14.2357L101.017 10.301V23.6373H96.9428V14.2357ZM45.6375 24C44.1532 24 42.7851 23.7675 41.5332 23.3026C40.2992 22.8197 39.2173 22.1401 38.2873 21.2638C37.3753 20.3875 36.6599 19.3592 36.1413 18.1789C35.6406 16.9986 35.3902 15.702 35.3902 14.2892C35.3902 12.8764 35.6406 11.5799 36.1413 10.3995C36.6599 9.21923 37.3842 8.19093 38.3142 7.31463C39.2441 6.43834 40.335 5.7677 41.5869 5.30273C42.8387 4.81987 44.2157 4.57845 45.718 4.57845C47.3811 4.57845 48.8744 4.85564 50.1978 5.41003C51.5391 5.96442 52.6657 6.76918 53.5778 7.82432L50.788 10.3995C50.1084 9.68421 49.3662 9.15664 48.5615 8.81685C47.7567 8.45918 46.8804 8.28035 45.9326 8.28035C45.0205 8.28035 44.1889 8.42342 43.4378 8.70955C42.6867 8.99569 42.034 9.40701 41.4796 9.94352C40.9431 10.48 40.5228 11.1149 40.2188 11.8481C39.9326 12.5813 39.7896 13.3951 39.7896 14.2892C39.7896 15.1655 39.9326 15.9703 40.2188 16.7035C40.5228 17.4367 40.9431 18.0805 41.4796 18.6349C42.034 19.1714 42.6778 19.5828 43.411 19.8689C44.1621 20.155 44.9847 20.2981 45.8789 20.2981C46.7373 20.2981 47.5689 20.164 48.3737 19.8957C48.6723 19.7919 48.9674 19.6633 49.2589 19.5099V13.9942H53.2291V21.6126C52.2097 22.3815 51.0205 22.9717 49.6613 23.383C48.32 23.7944 46.9788 24 45.6375 24ZM0 4.90035V23.6781H13.7614V20.1372H4.34571V4.90035H0ZM22.1959 4.90035L13.8264 23.6781H18.2794L19.9527 19.6543H28.6572L30.324 23.6781H34.8843L26.488 4.90035H22.1959ZM27.2904 16.3548L24.3134 9.16825L21.3249 16.3548H27.2904ZM62.2554 23.2757C63.5251 23.7586 64.9022 24 66.3865 24C67.853 24 69.2032 23.7586 70.4371 23.2757C71.689 22.7929 72.7709 22.1222 73.683 21.2638C74.6129 20.3875 75.3372 19.3592 75.8559 18.1789C76.3745 16.9807 76.6338 15.6841 76.6338 14.2892C76.6338 12.8764 76.3745 11.5888 75.8559 10.4264C75.3372 9.24606 74.6129 8.21775 73.683 7.34146C72.7709 6.46516 71.689 5.78559 70.4371 5.30273C69.2032 4.81987 67.844 4.57845 66.3597 4.57845C64.8932 4.57845 63.5341 4.81987 62.2822 5.30273C61.0304 5.78559 59.9395 6.46516 59.0095 7.34146C58.0796 8.21775 57.3553 9.24606 56.8367 10.4264C56.3359 11.6067 56.0856 12.8943 56.0856 14.2892C56.0856 15.6841 56.3359 16.9718 56.8367 18.1521C57.3553 19.3324 58.0706 20.3607 58.9827 21.237C59.9126 22.1133 61.0035 22.7929 62.2554 23.2757ZM68.6666 19.8689C67.9692 20.155 67.2002 20.2981 66.3597 20.2981C65.5191 20.2981 64.7412 20.155 64.0259 19.8689C63.3105 19.5828 62.6846 19.1714 62.1481 18.6349C61.6295 18.0984 61.2181 17.4636 60.9141 16.7303C60.628 15.9792 60.4849 15.1655 60.4849 14.2892C60.4849 13.3951 60.628 12.5813 60.9141 11.8481C61.2181 11.1149 61.6384 10.48 62.1749 9.94352C62.7114 9.40701 63.3284 8.99569 64.0259 8.70955C64.7412 8.42342 65.5191 8.28035 66.3597 8.28035C67.2002 8.28035 67.9781 8.42342 68.6935 8.70955C69.4088 8.99569 70.0258 9.40701 70.5444 9.94352C71.0809 10.48 71.4922 11.1149 71.7784 11.8481C72.0824 12.5813 72.2344 13.3951 72.2344 14.2892C72.2344 15.1834 72.0824 15.9971 71.7784 16.7303C71.4922 17.4636 71.0809 18.0984 70.5444 18.6349C70.0079 19.1714 69.382 19.5828 68.6666 19.8689Z" fill="url(#paint0_linear_351_5188)"/>
</g>
<defs>
<linearGradient id="paint0_linear_351_5188" x1="5.29478" y1="24.0263" x2="28.719" y2="-31.1375" gradientUnits="userSpaceOnUse">
<stop stop-color="#5367FE"/>
<stop offset="0.427092" stop-color="#5C7AFD"/>
<stop offset="1" stop-color="#85BEFF"/>
</linearGradient>
</defs>
</svg>
